<?xml version="1.0" encoding="UTF-8" standalone="no"?>
<!-- Generator: Adobe Illustrator 15.0.2, SVG Export Plug-In  -->

<svg
   xmlns:dc="http://purl.org/dc/elements/1.1/"
   xmlns:cc="http://creativecommons.org/ns#"
   xmlns:rdf="http://www.w3.org/1999/02/22-rdf-syntax-ns#"
   xmlns:svg="http://www.w3.org/2000/svg"
   xmlns="http://www.w3.org/2000/svg"
   xmlns:sodipodi="http://sodipodi.sourceforge.net/DTD/sodipodi-0.dtd"
   xmlns:inkscape="http://www.inkscape.org/namespaces/inkscape"
   version="1.1"
   x="0px"
   y="0px"
   width="38.807999"
   height="38.807999"
   viewBox="-5.722 -5.158 38.807998 38.807999"
   overflow="visible"
   enable-background="new -5.722 -5.158 153 37"
   xml:space="preserve"
   id="svg3155"
   inkscape:version="0.48.4 r9939"
   sodipodi:docname="diana-hep-logo.svg"
   inkscape:export-filename="/home/pivarski/talks/2017-10-25-aps-nuclear/diana-hep-logo.png"
   inkscape:export-xdpi="463.8219"
   inkscape:export-ydpi="463.8219"
   style="overflow:visible"><metadata
     id="metadata3189"><rdf:RDF><cc:Work
         rdf:about=""><dc:format>image/svg+xml</dc:format><dc:type
           rdf:resource="http://purl.org/dc/dcmitype/StillImage" /><dc:title></dc:title></cc:Work></rdf:RDF></metadata><sodipodi:namedview
     pagecolor="#060039"
     bordercolor="#666666"
     borderopacity="1"
     objecttolerance="10"
     gridtolerance="10"
     guidetolerance="10"
     inkscape:pageopacity="0"
     inkscape:pageshadow="2"
     inkscape:window-width="1080"
     inkscape:window-height="1027"
     id="namedview3187"
     showgrid="false"
     fit-margin-top="5"
     fit-margin-left="5"
     fit-margin-right="5"
     fit-margin-bottom="5"
     inkscape:zoom="2.0915033"
     inkscape:cx="75.777999"
     inkscape:cy="20.466002"
     inkscape:window-x="834"
     inkscape:window-y="0"
     inkscape:window-maximized="0"
     inkscape:current-layer="svg3155" /><defs
     id="defs3157" /><path
     d="M 12.606998,13.903 C 9.8159984,12.784 3.8219986,12.448 0.22399862,12.448 v 0.82 c 6.12399978,0 10.21999938,0.707 12.02399938,1.361 0.051,-0.277 0.18,-0.523 0.359,-0.726 z"
     id="path3175"
     inkscape:connector-curvature="0"
     style="fill:#3b97d3" /><path
     d="m 14.564998,13.612 c 0.265,-4.42 3.695,-8.142 8.241,-8.609 l -0.083,-0.814 c -4.889,0.504 -8.594,4.455 -8.966,9.189 0.297,-10e-4 0.573,0.087 0.808,0.234 z"
     id="path3177"
     inkscape:connector-curvature="0"
     style="fill:#3b97d3" /><path
     d="m 15.271998,15.102 c -0.035,0.279 -0.142,0.533 -0.306,0.746 2.839,1.082 8.71,1.41 12.258,1.41 v -0.822 c -6.043,0 -10.112,-0.688 -11.952,-1.334 z"
     id="path3179"
     inkscape:connector-curvature="0"
     style="fill:#3b97d3" /><path
     d="m 12.877998,16.172 c -0.301,4.385 -3.7179996,8.064 -8.2359994,8.531 l 0.083,0.814 c 4.8499998,-0.5 8.5379994,-4.393 8.9589994,-9.076 -0.299,-0.013 -0.576,-0.109 -0.806,-0.269 z"
     id="path3181"
     inkscape:connector-curvature="0"
     style="fill:#3b97d3" /><path
     d="m 13.681998,-0.15799996 c -0.375,0 -0.681,0.305 -0.681,0.68 0,0.377 0.305,0.68199996 0.681,0.68199996 6.243,0 11.469,4.41 12.741,10.279 -4.074,-2.139 -9.07,-1.293 -12.224,1.967 0.274,0.084 0.514,0.238 0.7,0.447 3.058,-3.053 7.904,-3.697 11.698,-1.369 0.075,0.564 0.127,1.135 0.127,1.719 0,2.824 -0.913,5.436 -2.445,7.574 -4.123,0.484 -8.033,-1.953 -9.461,-5.803 -0.188,0.182 -0.423,0.312 -0.684,0.379 1.498,3.895 5.347,6.422 9.515,6.244 -2.395,2.838 -5.972,4.648 -9.967,4.648 -5.7509996,0 -10.6359994,-3.746 -12.3649994,-8.924 3.9869998,1.934 8.7769994,1.09 11.8579994,-2.031 -0.261,-0.107 -0.483,-0.285 -0.649,-0.508 C 9.5099984,18.818 4.7709986,19.48 1.0079986,17.273 0.77599862,16.3 0.63899862,15.289 0.63899862,14.246 c 0,-2.436 0.68899998,-4.775 1.91899998,-6.791 4.4479998,-0.516 8.6609994,2.175 10.0949994,6.389 0.194,-0.199 0.441,-0.342 0.719,-0.414 -1.53,-4.277 -5.7149996,-7.062 -10.2399994,-6.836 1.079,-1.488 2.4689998,-2.761 4.1179998,-3.697 0.028,-0.016 0.043,-0.04 0.067,-0.058 l 0.331,0.687 c 0.053,0.109 0.16,0.184 0.282,0.192 0.008,10e-4 0.017,10e-4 0.025,10e-4 0.112,0 0.218,-0.056 0.281,-0.148 l 1.702,-2.499 c 0.068,-0.10199996 0.078,-0.22999996 0.026,-0.33999996 -0.053,-0.109 -0.161,-0.184 -0.282,-0.191 l -3.014,-0.226 c -0.116,-0.007 -0.238,0.048 -0.307,0.148 -0.068,0.1 -0.078,0.23 -0.025,0.34 L 6.7479984,1.656 c -0.057,0.016 -0.116,0.026 -0.17,0.057 -4.5029998,2.558 -7.29999978,7.359 -7.29999978,12.533 0,7.943 6.46099978,14.404 14.40399938,14.404 7.943,0 14.404,-6.461 14.404,-14.404 0,-7.943 -6.461,-14.40399996 -14.404,-14.40399996 z"
     id="path3183"
     inkscape:connector-curvature="0"
     style="fill:#ffffff" /><path
     d="m 13.754998,17.129 c -1.223,0 -2.217,-0.994 -2.217,-2.217 0,-1.223 0.995,-2.217 2.217,-2.217 1.222,0 2.217,0.994 2.217,2.217 0,1.223 -0.994,2.217 -2.217,2.217 z m 0,-3.467 c -0.689,0 -1.25,0.561 -1.25,1.25 0,0.689 0.561,1.25 1.25,1.25 0.689,0 1.25,-0.561 1.25,-1.25 0,-0.689 -0.56,-1.25 -1.25,-1.25 z"
     id="path3185"
     inkscape:connector-curvature="0"
     style="fill:#3b97d3" /></svg>