<?xml version="1.0" encoding="UTF-8" standalone="no"?>
<!-- Generator: Adobe Illustrator 15.0.2, SVG Export Plug-In  -->

<svg
   xmlns:dc="http://purl.org/dc/elements/1.1/"
   xmlns:cc="http://creativecommons.org/ns#"
   xmlns:rdf="http://www.w3.org/1999/02/22-rdf-syntax-ns#"
   xmlns:svg="http://www.w3.org/2000/svg"
   xmlns="http://www.w3.org/2000/svg"
   xmlns:sodipodi="http://sodipodi.sourceforge.net/DTD/sodipodi-0.dtd"
   xmlns:inkscape="http://www.inkscape.org/namespaces/inkscape"
   version="1.1"
   x="0px"
   y="0px"
   width="161.77899"
   height="48.807999"
   viewBox="-5.722 -5.158 161.77899 48.807999"
   overflow="visible"
   enable-background="new -5.722 -5.158 153 37"
   xml:space="preserve"
   id="svg3155"
   inkscape:version="0.48.4 r9939"
   sodipodi:docname="diana-hep-logo-long.svg"
   inkscape:export-filename="/home/pivarski/talks/2017-10-25-aps-nuclear/diana-hep-logo-long.png"
   inkscape:export-xdpi="368.79202"
   inkscape:export-ydpi="368.79202"
   style="overflow:visible"><metadata
     id="metadata3189"><rdf:RDF><cc:Work
         rdf:about=""><dc:format>image/svg+xml</dc:format><dc:type
           rdf:resource="http://purl.org/dc/dcmitype/StillImage" /><dc:title></dc:title></cc:Work></rdf:RDF></metadata><sodipodi:namedview
     pagecolor="#060039"
     bordercolor="#666666"
     borderopacity="1"
     objecttolerance="10"
     gridtolerance="10"
     guidetolerance="10"
     inkscape:pageopacity="0"
     inkscape:pageshadow="2"
     inkscape:window-width="1080"
     inkscape:window-height="1027"
     id="namedview3187"
     showgrid="false"
     fit-margin-top="10"
     fit-margin-left="10"
     fit-margin-right="10"
     fit-margin-bottom="10"
     inkscape:zoom="2.0915033"
     inkscape:cx="80.778"
     inkscape:cy="25.466001"
     inkscape:window-x="834"
     inkscape:window-y="0"
     inkscape:window-maximized="0"
     inkscape:current-layer="svg3155" /><defs
     id="defs3157" /><path
     d="m 50.574,25.684 h -2.645 v -2.092 c -0.874,1.426 -2.346,2.207 -4.3,2.207 -3.518,0 -5.864,-2.553 -5.864,-6.277 0,-3.68 2.369,-6.186 5.818,-6.186 1.978,0 3.449,0.805 4.346,2.23 V 8.621 h 2.645 v 17.063 z m -2.645,-6.071 c 0,-2.367 -1.541,-4.023 -3.749,-4.023 -2.208,0 -3.748,1.678 -3.771,4.023 0.023,2.322 1.541,3.979 3.771,3.979 2.208,0 3.749,-1.656 3.749,-3.979 z"
     id="path3159"
     inkscape:connector-curvature="0"
     style="fill:#ffffff" /><path
     d="m 57.453,9.955 c 0,0.92 -0.667,1.588 -1.541,1.588 -0.874,0 -1.541,-0.668 -1.541,-1.588 0,-0.941 0.667,-1.609 1.541,-1.609 0.874,0 1.541,0.668 1.541,1.609 z M 54.601,25.684 V 13.451 h 2.622 v 12.232 h -2.622 z"
     id="path3161"
     inkscape:connector-curvature="0"
     style="fill:#ffffff" /><path
     d="m 68.468,24.19 c -0.874,1.08 -2.276,1.609 -4.047,1.609 -2.644,0 -4.3,-1.633 -4.3,-3.793 0,-2.23 1.679,-3.656 4.622,-3.68 h 3.702 v -0.369 c 0,-1.539 -0.989,-2.459 -2.92,-2.459 -1.173,0 -2.392,0.414 -3.61,1.242 L 60.834,14.9 c 1.702,-1.012 2.943,-1.541 5.266,-1.541 3.15,0 4.921,1.609 4.944,4.299 l 0.023,8.025 H 68.468 V 24.19 z m -0.023,-2.805 v -1.127 h -3.312 c -1.725,0 -2.529,0.459 -2.529,1.633 0,1.104 0.897,1.816 2.369,1.816 1.886,0 3.334,-0.988 3.472,-2.322 z"
     id="path3163"
     inkscape:connector-curvature="0"
     style="fill:#ffffff" /><path
     d="m 86.316,18.072 v 7.611 h -2.645 v -6.875 c 0,-1.84 -1.104,-2.967 -2.943,-2.967 -2.023,0.023 -3.289,1.426 -3.472,3.334 v 6.508 H 74.611 V 13.451 h 2.645 v 2.346 c 0.874,-1.701 2.438,-2.438 4.507,-2.438 2.851,10e-4 4.553,1.794 4.553,4.713 z"
     id="path3165"
     inkscape:connector-curvature="0"
     style="fill:#ffffff" /><path
     d="m 97.195,24.19 c -0.874,1.08 -2.276,1.609 -4.047,1.609 -2.644,0 -4.3,-1.633 -4.3,-3.793 0,-2.23 1.679,-3.656 4.622,-3.68 h 3.702 v -0.369 c 0,-1.539 -0.989,-2.459 -2.92,-2.459 -1.173,0 -2.392,0.414 -3.61,1.242 L 89.561,14.9 c 1.702,-1.012 2.943,-1.541 5.266,-1.541 3.15,0 4.921,1.609 4.944,4.299 l 0.023,8.025 H 97.196 V 24.19 z m -0.022,-2.805 v -1.127 h -3.312 c -1.725,0 -2.529,0.459 -2.529,1.633 0,1.104 0.897,1.816 2.369,1.816 1.885,0 3.333,-0.988 3.472,-2.322 z"
     id="path3167"
     inkscape:connector-curvature="0"
     style="fill:#ffffff" /><path
     d="m 116.112,18.072 v 7.611 h -2.645 v -6.875 c 0,-1.84 -1.104,-2.967 -2.943,-2.967 -2.184,0.023 -3.495,1.656 -3.495,3.818 v 6.023 h -2.645 V 8.621 h 2.645 v 7.221 c 0.874,-1.725 2.438,-2.482 4.53,-2.482 2.851,0 4.553,1.793 4.553,4.712 z"
     id="path3169"
     inkscape:connector-curvature="0"
     style="fill:#3b97d3" /><path
     d="m 130.418,20.58 h -9.244 c 0.414,1.885 1.863,3.059 3.794,3.059 1.333,0 2.552,-0.506 3.449,-1.426 l 1.402,1.494 c -1.195,1.311 -2.943,2.068 -5.059,2.068 -3.771,0 -6.255,-2.506 -6.255,-6.186 0,-3.701 2.553,-6.207 6.186,-6.23 4.301,10e-4 6.049,2.805 5.727,7.221 z m -2.3,-1.931 c -0.092,-1.979 -1.402,-3.174 -3.403,-3.174 -1.932,0 -3.289,1.219 -3.587,3.174 h 6.99 z"
     id="path3171"
     inkscape:connector-curvature="0"
     style="fill:#3b97d3" /><path
     d="m 146.057,19.613 c 0,3.656 -2.299,6.162 -5.794,6.162 -1.955,0 -3.426,-0.781 -4.323,-2.207 v 6.576 h -2.645 V 13.451 h 2.645 v 2.115 c 0.897,-1.426 2.369,-2.207 4.277,-2.207 3.472,10e-4 5.84,2.53 5.84,6.254 z m -2.667,-0.091 c 0,-2.275 -1.541,-3.955 -3.726,-3.955 -2.184,0 -3.725,1.656 -3.725,3.955 0,2.369 1.541,4.002 3.725,4.002 2.185,0 3.726,-1.657 3.726,-4.002 z"
     id="path3173"
     inkscape:connector-curvature="0"
     style="fill:#3b97d3" /><path
     d="M 17.607,18.903 C 14.816,17.784 8.8220002,17.448 5.2240002,17.448 v 0.82 C 11.348,18.268 15.444,18.975 17.248,19.629 c 0.051,-0.277 0.18,-0.523 0.359,-0.726 z"
     id="path3175"
     inkscape:connector-curvature="0"
     style="fill:#3b97d3" /><path
     d="m 19.565,18.612 c 0.265,-4.42 3.695,-8.142 8.241,-8.609 L 27.723,9.189 c -4.889,0.504 -8.594,4.455 -8.966,9.189 0.297,-0.001 0.573,0.087 0.808,0.234 z"
     id="path3177"
     inkscape:connector-curvature="0"
     style="fill:#3b97d3" /><path
     d="m 20.272,20.102 c -0.035,0.279 -0.142,0.533 -0.306,0.746 2.839,1.082 8.71,1.41 12.258,1.41 v -0.822 c -6.043,0 -10.112,-0.688 -11.952,-1.334 z"
     id="path3179"
     inkscape:connector-curvature="0"
     style="fill:#3b97d3" /><path
     d="m 17.878,21.172 c -0.301,4.385 -3.718,8.064 -8.2359998,8.531 l 0.083,0.814 C 14.575,30.017 18.263,26.124 18.684,21.441 18.385,21.428 18.108,21.332 17.878,21.172 z"
     id="path3181"
     inkscape:connector-curvature="0"
     style="fill:#3b97d3" /><path
     d="m 18.682,4.842 c -0.375,0 -0.681,0.305 -0.681,0.68 0,0.377 0.305,0.682 0.681,0.682 6.243,0 11.469,4.41 12.741,10.279 -4.074,-2.139 -9.07,-1.293 -12.224,1.967 0.274,0.084 0.514,0.238 0.7,0.447 3.058,-3.053 7.904,-3.697 11.698,-1.369 0.075,0.564 0.127,1.135 0.127,1.719 0,2.824 -0.913,5.436 -2.445,7.574 -4.123,0.484 -8.033,-1.953 -9.461,-5.803 -0.188,0.182 -0.423,0.312 -0.684,0.379 1.498,3.895 5.347,6.422 9.515,6.244 -2.395,2.838 -5.972,4.648 -9.967,4.648 -5.751,0 -10.6359998,-3.746 -12.3649998,-8.924 C 10.304,25.299 15.094,24.455 18.175,21.334 17.914,21.227 17.692,21.049 17.526,20.826 14.51,23.818 9.7710002,24.48 6.0080002,22.273 c -0.232,-0.973 -0.369,-1.984 -0.369,-3.027 0,-2.436 0.689,-4.775 1.919,-6.791 C 12.006,11.939 16.219,14.63 17.653,18.844 17.847,18.645 18.094,18.502 18.372,18.43 16.842,14.153 12.657,11.368 8.1320002,11.594 9.2110002,10.106 10.601,8.833 12.25,7.897 12.278,7.881 12.293,7.857 12.317,7.839 l 0.331,0.687 c 0.053,0.109 0.16,0.184 0.282,0.192 0.008,10e-4 0.017,10e-4 0.025,10e-4 0.112,0 0.218,-0.056 0.281,-0.148 L 14.938,6.072 C 15.006,5.97 15.016,5.842 14.964,5.732 14.911,5.623 14.803,5.548 14.682,5.541 L 11.668,5.315 c -0.116,-0.007 -0.238,0.048 -0.307,0.148 -0.068,0.1 -0.078,0.23 -0.025,0.34 l 0.412,0.853 c -0.057,0.016 -0.116,0.026 -0.17,0.057 -4.5029998,2.558 -7.2999998,7.359 -7.2999998,12.533 0,7.943 6.4609998,14.404 14.4039998,14.404 7.943,0 14.404,-6.461 14.404,-14.404 0,-7.943 -6.461,-14.404 -14.404,-14.404 z"
     id="path3183"
     inkscape:connector-curvature="0"
     style="fill:#ffffff" /><path
     d="m 18.755,22.129 c -1.223,0 -2.217,-0.994 -2.217,-2.217 0,-1.223 0.995,-2.217 2.217,-2.217 1.222,0 2.217,0.994 2.217,2.217 0,1.223 -0.994,2.217 -2.217,2.217 z m 0,-3.467 c -0.689,0 -1.25,0.561 -1.25,1.25 0,0.689 0.561,1.25 1.25,1.25 0.689,0 1.25,-0.561 1.25,-1.25 0,-0.689 -0.56,-1.25 -1.25,-1.25 z"
     id="path3185"
     inkscape:connector-curvature="0"
     style="fill:#3b97d3" /></svg>